<svg width="936" height="161" viewBox="0 0 936 161" fill="none" xmlns="http://www.w3.org/2000/svg">
<rect width="936" height="161" rx="10" fill="url(#paint0_linear)"/>
<g clip-path="url(#clip0)">
<path d="M884.4 73.5781L861.403 84.553L881.756 69.2068C878.448 64.0004 874.732 59.0695 870.644 54.4614L770.909 79.4578L860.998 44.8053C856.881 41.1428 852.509 37.7826 847.915 34.7507L695.944 59.4337C679.808 79.7796 671.012 105.053 671 131.104H899.758C899.749 110.9 894.451 91.0563 884.4 73.5781V73.5781Z" fill="#F2F2F2"/>
<path d="M835.478 27.6251C819.875 19.9515 802.739 15.9752 785.379 16C750.048 16 718.459 32.1546 697.478 57.5368C733.406 49.5989 795.96 35.8579 835.478 27.6251Z" fill="#F2F2F2"/>
<path d="M899.76 130.641C899.76 134.222 866.751 145 826.033 145C785.314 145 752.305 134.222 752.305 130.641C752.305 127.059 785.314 132.031 826.033 132.031C866.751 132.031 899.76 127.059 899.76 130.641Z" fill="#3F3D56"/>
<path opacity="0.1" d="M899.76 130.641C899.76 134.222 866.751 145 826.033 145C785.314 145 752.305 134.222 752.305 130.641C752.305 127.059 785.314 132.031 826.033 132.031C866.751 132.031 899.76 127.059 899.76 130.641Z" fill="black"/>
<path d="M826.033 137.126C866.751 137.126 899.76 134.222 899.76 130.641C899.76 127.06 866.751 124.156 826.033 124.156C785.314 124.156 752.305 127.06 752.305 130.641C752.305 134.222 785.314 137.126 826.033 137.126Z" fill="#3F3D56"/>
<path d="M805.51 77.8659C805.51 77.8659 808.475 82.6083 807.416 83.8924C806.357 85.1764 815.362 85.2085 815.362 85.2085C815.362 85.2085 814.009 78.3097 814.407 76.722L805.51 77.8659Z" fill="#FFB8B8"/>
<path opacity="0.1" d="M805.51 77.8659C805.51 77.8659 808.475 82.6083 807.416 83.8924C806.357 85.1764 815.362 85.2085 815.362 85.2085C815.362 85.2085 814.009 78.3097 814.407 76.722L805.51 77.8659Z" fill="black"/>
<path d="M810.249 79.5846C815.385 79.5846 819.548 75.3868 819.548 70.2085C819.548 65.0302 815.385 60.8324 810.249 60.8324C805.114 60.8324 800.951 65.0302 800.951 70.2085C800.951 75.3868 805.114 79.5846 810.249 79.5846Z" fill="#FF6584"/>
<path d="M832.119 121.03V126.588L837.631 125.43L837.172 121.493L832.119 121.03Z" fill="#FFB8B8"/>
<path d="M851.642 121.956L867.03 124.504L863.126 130.294C863.126 130.294 852.331 126.588 849.575 126.588C846.819 126.588 851.642 121.956 851.642 121.956Z" fill="#FFB8B8"/>
<path d="M816.731 110.839C816.731 110.839 828.215 97.4066 831.889 98.1014C835.564 98.7962 837.172 102.965 837.172 102.965L839.239 123.577C839.239 123.577 831.889 124.272 831.889 123.577C831.889 122.882 830.511 108.06 830.511 108.06C830.511 108.06 819.716 132.146 813.974 116.166L816.731 110.839Z" fill="#2F2E41"/>
<path d="M798.126 119.872C798.126 119.872 798.356 131.452 805.246 132.146C812.137 132.841 819.716 127.514 819.716 127.514L832.119 121.523C832.119 121.523 846.819 129.367 851.183 127.283C851.183 127.283 855.776 122.419 852.79 121.03C849.804 119.64 852.561 121.03 852.561 121.03L834.875 111.766C834.875 111.766 831.43 110.839 825.458 113.387C819.487 115.934 811.448 117.092 811.448 117.092L798.126 119.872Z" fill="#2F2E41"/>
<path d="M809.61 80.2684C813.416 80.2684 816.501 77.1577 816.501 73.3205C816.501 69.4832 813.416 66.3725 809.61 66.3725C805.805 66.3725 802.72 69.4832 802.72 73.3205C802.72 77.1577 805.805 80.2684 809.61 80.2684Z" fill="#FFB8B8"/>
<path d="M819.487 92.7747L819.027 102.502C819.027 102.502 819.257 115.24 817.19 116.166C816.145 116.634 814.046 117.574 812.105 118.602C810.649 119.371 809.282 120.187 808.519 120.888C808.317 121.062 808.143 121.266 808.003 121.493C807.084 123.114 801.112 122.882 799.734 121.724C798.356 120.566 799.275 123.114 798.126 123.577C797.015 124.027 795.474 120.353 796.418 114.869C796.447 114.686 796.482 114.501 796.519 114.313C797.573 108.998 795.917 96.2672 796.172 91.348C796.187 90.9722 796.226 90.5978 796.289 90.2271C796.978 86.5215 805.77 78.9807 807.415 82.193C809.44 86.1579 814.094 82.5357 814.893 80.7316C819.487 80.5 821.094 86.0583 821.094 86.0583L819.487 92.7747Z" fill="#3F3D56"/>
<path d="M838.091 124.504C838.091 124.504 834.416 125.893 833.267 125.662C832.119 125.43 830.971 126.356 830.971 127.746C830.971 129.136 829.593 132.378 831.66 132.61C833.727 132.841 842.225 132.378 844.062 133.073C844.062 133.073 852.331 133.304 851.642 129.83C850.953 126.356 847.508 126.588 847.508 126.588C847.508 126.588 838.091 126.125 838.091 124.504Z" fill="#2F2E41"/>
<path d="M864.963 125.198C864.963 125.198 865.423 123.809 866.112 123.809C866.801 123.809 872.313 124.735 873.002 124.504C873.691 124.272 881.73 123.809 880.352 127.746C878.974 131.683 874.38 132.146 874.38 132.146C874.38 132.146 866.112 131.22 864.963 131.452C863.815 131.683 859.681 131.452 860.37 130.294C861.059 129.136 865.423 127.051 864.963 125.198Z" fill="#2F2E41"/>
<path d="M844.056 91.9325L845.317 97.1736C845.331 97.2321 845.328 97.2933 845.31 97.3505L839.594 115.362C839.572 115.433 839.525 115.495 839.463 115.536C839.401 115.577 839.327 115.595 839.253 115.588C839.179 115.581 839.11 115.548 839.057 115.495C839.004 115.443 838.971 115.374 838.963 115.299L838.172 108.283C838.167 108.236 838.171 108.189 838.186 108.144L843.432 91.9082C843.454 91.8404 843.497 91.7817 843.555 91.741C843.613 91.7003 843.683 91.6797 843.753 91.6825C843.824 91.6852 843.892 91.7111 843.947 91.7562C844.001 91.8014 844.04 91.8632 844.056 91.9325V91.9325Z" fill="#D0CDE1"/>
<path d="M843.593 92.3752L844.756 96.8719L839.715 113.295L838.552 108.212L843.593 92.3752Z" fill="#B69F9F"/>
<path d="M818.192 116.815C818.386 117.401 838.358 116.619 838.552 116.424C838.721 116.179 838.864 115.917 838.978 115.641C839.16 115.25 839.327 114.859 839.327 114.859L838.552 108.529L818.774 107.821C818.774 107.821 818.28 113.186 818.179 115.641C818.145 116.032 818.149 116.425 818.192 116.815Z" fill="#AFABC5"/>
<path opacity="0.1" d="M836.031 109.385L836.419 114.859H827.693V109.385H836.031Z" fill="black"/>
<path opacity="0.1" d="M824.785 111.145L824.837 111.134L824.591 113.491H819.744V111.145H824.785Z" fill="black"/>
<path opacity="0.1" d="M818.192 116.815C818.386 117.401 838.358 116.619 838.552 116.424C838.721 116.179 838.864 115.917 838.978 115.641H818.179C818.145 116.032 818.149 116.425 818.192 116.815Z" fill="black"/>
<path d="M815.103 53.5189C814.4 54.5308 813.358 55.2527 812.17 55.5518C810.119 56.1056 812.153 59.2131 812.153 59.2131C812.153 59.2131 811.413 58.0831 812.48 56.8864C813.547 55.6897 815.264 54.8715 815.103 53.5189Z" fill="#FF6584"/>
<path d="M811.79 62.5716C813.221 62.5716 814.381 61.4017 814.381 59.9586C814.381 58.5155 813.221 57.3456 811.79 57.3456C810.358 57.3456 809.198 58.5155 809.198 59.9586C809.198 61.4017 810.358 62.5716 811.79 62.5716Z" fill="#FF6584"/>
<path d="M815.098 62.1487C812.986 61.343 809.468 60.9345 807.658 61.2137L807.907 59.3863C809.646 60.293 813.148 60.7191 815.346 60.3213L815.098 62.1487Z" fill="#3F3D56"/>
<path d="M811.01 62.8029C811.01 62.8029 808.363 67.2435 802.206 68.9058C796.05 70.5681 802.156 79.897 802.156 79.897C802.156 79.897 799.936 76.5047 803.138 72.9121C806.341 69.3196 811.495 66.8635 811.01 62.8029Z" fill="#FF6584"/>
<path d="M811.221 62.533C811.221 62.533 813.764 68.6324 816.556 69.209C819.349 69.7857 819.137 79.4233 814.77 80.8685C814.77 80.8685 817.954 75.2185 815.233 71.4293C812.511 67.6402 810.792 64.6448 811.221 62.533Z" fill="#FF6584"/>
<path opacity="0.1" d="M812.105 118.602C811.537 119.684 810.871 120.807 810.759 121.261C810.683 121.569 809.842 121.391 808.519 120.888C805.867 119.876 801.268 117.558 796.978 115.24C796.78 115.134 796.593 115.01 796.418 114.869C796.447 114.686 796.482 114.501 796.519 114.313C797.573 108.998 795.917 96.2672 796.172 91.348L798.126 90.6903L802.031 94.3959V110.145C802.031 110.145 812.137 115.703 812.826 116.166C813.177 116.402 812.693 117.479 812.105 118.602Z" fill="black"/>
<path d="M820.635 105.976L826.836 109.218C826.836 109.218 830.511 105.281 832.808 108.292C835.105 111.303 826.147 112.229 826.147 112.229C826.147 112.229 818.338 110.376 818.109 107.829C817.879 105.281 820.635 105.976 820.635 105.976Z" fill="#FFB8B8"/>
<path d="M810.299 114.545L813.974 115.471C813.974 115.471 818.109 110.376 822.473 112.229C826.836 114.082 816.96 117.787 816.96 117.787C816.96 117.787 811.678 120.566 809.61 118.25C807.543 115.934 810.299 114.545 810.299 114.545Z" fill="#FFB8B8"/>
<path d="M818.338 83.974C818.568 84.2056 821.094 86.0583 821.094 86.0583C821.094 86.0583 821.783 94.8591 820.865 96.7118C819.946 98.5646 819.257 98.5646 819.946 99.491C820.635 100.417 821.554 99.7226 820.635 101.344C819.716 102.965 818.798 102.733 819.487 103.428C820.176 104.123 819.946 104.355 819.946 104.355L822.702 106.671C822.702 106.671 821.011 109.386 818.871 109.186C816.731 108.987 814.893 98.5646 814.893 98.5646L818.338 83.974Z" fill="#3F3D56"/>
<path d="M798.126 89.5323L796.059 90.2271C796.059 90.2271 790.547 110.608 796.978 114.082C803.409 117.556 810.529 121.03 810.759 120.103C810.988 119.177 813.515 115.471 812.826 115.008C812.137 114.545 802.031 108.987 802.031 108.987V93.2379L798.126 89.5323Z" fill="#3F3D56"/>
<path opacity="0.1" d="M801.227 97.9856L800.768 109.102L812.941 114.892L801.687 109.102L801.227 97.9856Z" fill="black"/>
<path d="M903.687 122.916C899.058 125.668 897.236 131.201 897.236 131.201C897.236 131.201 902.919 132.271 907.549 129.519C912.178 126.766 914 121.233 914 121.233C914 121.233 908.317 120.163 903.687 122.916Z" fill="#3F3D56"/>
<path d="M905.31 124.622C902.717 129.369 897.286 131.368 897.286 131.368C897.286 131.368 896.058 125.671 898.65 120.924C901.243 116.178 906.674 114.178 906.674 114.178C906.674 114.178 907.902 119.875 905.31 124.622Z" fill="#FF6584"/>
<path d="M676.051 69.7307C676.559 69.7307 676.97 69.3159 676.97 68.8043C676.97 68.2927 676.559 67.8779 676.051 67.8779C675.544 67.8779 675.133 68.2927 675.133 68.8043C675.133 69.3159 675.544 69.7307 676.051 69.7307Z" fill="#CE63FF"/>
<path d="M678.578 69.7307C679.085 69.7307 679.497 69.3159 679.497 68.8043C679.497 68.2927 679.085 67.8779 678.578 67.8779C678.071 67.8779 677.659 68.2927 677.659 68.8043C677.659 69.3159 678.071 69.7307 678.578 69.7307Z" fill="#CE63FF"/>
<path d="M681.104 69.7307C681.612 69.7307 682.023 69.3159 682.023 68.8043C682.023 68.2927 681.612 67.8779 681.104 67.8779C680.597 67.8779 680.186 68.2927 680.186 68.8043C680.186 69.3159 680.597 69.7307 681.104 69.7307Z" fill="#CE63FF"/>
<path opacity="0.3" d="M702.465 103.746H689.143V105.136H702.465V103.746Z" fill="#CE63FF"/>
<path opacity="0.3" d="M701.745 106.757H689.143V108.146H701.745V106.757Z" fill="#CE63FF"/>
<path opacity="0.3" d="M698.324 109.768H689.143V111.157H698.324V109.768Z" fill="#CE63FF"/>
<g opacity="0.3">
<path opacity="0.3" d="M733.472 103.746H720.15V105.136H733.472V103.746Z" fill="#CE63FF"/>
<path opacity="0.3" d="M732.751 106.757H720.15V108.146H732.751V106.757Z" fill="#CE63FF"/>
<path opacity="0.3" d="M729.331 109.768H720.15V111.157H729.331V109.768Z" fill="#CE63FF"/>
<path opacity="0.3" d="M733.472 103.746H720.15V105.136H733.472V103.746Z" fill="#CE63FF"/>
<path opacity="0.3" d="M732.751 106.757H720.15V108.146H732.751V106.757Z" fill="#CE63FF"/>
<path opacity="0.3" d="M729.331 109.768H720.15V111.157H729.331V109.768Z" fill="#CE63FF"/>
</g>
<path opacity="0.3" d="M765.627 103.746H752.305V105.136H765.627V103.746Z" fill="#CE63FF"/>
<path opacity="0.3" d="M764.907 106.757H752.305V108.146H764.907V106.757Z" fill="#CE63FF"/>
<path opacity="0.3" d="M761.486 109.768H752.305V111.157H761.486V109.768Z" fill="#CE63FF"/>
<path opacity="0.3" d="M704.302 85.6814H687.306V100.967H704.302V85.6814Z" fill="#CE63FF"/>
<path d="M735.309 85.6814H718.313V100.967H735.309V85.6814Z" fill="#3F3D56"/>
<path d="M767.464 85.6814H750.468V100.967H767.464V85.6814Z" fill="#3F3D56"/>
<path d="M724.596 100.903L724.372 100.898C724.377 100.648 724.517 94.7467 726.821 93.1156L726.95 93.3006C724.739 94.8659 724.597 100.842 724.596 100.903Z" fill="#CE63FF"/>
<path d="M728.007 93.041C728.626 93.041 729.128 92.5348 729.128 91.9105C729.128 91.2861 728.626 90.78 728.007 90.78C727.387 90.78 726.885 91.2861 726.885 91.9105C726.885 92.5348 727.387 93.041 728.007 93.041Z" fill="#CE63FF"/>
<path d="M727.78 95.9022C727.197 96.0869 726.576 96.114 725.979 95.9807C726.358 95.4942 726.868 95.1286 727.448 94.9279C728.029 94.7271 728.654 94.6999 729.249 94.8494C728.859 95.3241 728.353 95.6871 727.78 95.9022V95.9022Z" fill="#CE63FF"/>
<path d="M756.752 100.903L756.527 100.898C756.532 100.648 756.672 94.7467 758.976 93.1156L759.105 93.3006C756.894 94.8659 756.753 100.842 756.752 100.903Z" fill="#CE63FF"/>
<path d="M760.162 93.041C760.781 93.041 761.283 92.5348 761.283 91.9105C761.283 91.2861 760.781 90.78 760.162 90.78C759.543 90.78 759.041 91.2861 759.041 91.9105C759.041 92.5348 759.543 93.041 760.162 93.041Z" fill="#CE63FF"/>
<path d="M759.935 95.9022C759.352 96.0869 758.731 96.114 758.134 95.9807C758.513 95.4942 759.023 95.1286 759.604 94.9279C760.184 94.7271 760.809 94.6999 761.405 94.8494C761.015 95.3241 760.508 95.6871 759.935 95.9022V95.9022Z" fill="#CE63FF"/>
<path d="M782.393 130.409H672.377V66.2567H782.393V130.409ZM672.836 129.946H781.934V66.7199H672.836V129.946Z" fill="#2F2E41"/>
<path d="M782.164 70.9037H672.606V71.3669H782.164V70.9037Z" fill="#2F2E41"/>
</g>
<defs>
<linearGradient id="paint0_linear" x1="0" y1="0" x2="587.287" y2="540.146" gradientUnits="userSpaceOnUse">
<stop stop-color="#FC18E5"/>
<stop offset="0.0001" stop-color="#F400BF"/>
<stop offset="1" stop-color="#9F01FF" stop-opacity="0.96"/>
</linearGradient>
<clipPath id="clip0">
<rect width="243" height="129" fill="white" transform="translate(671 16)"/>
</clipPath>
</defs>
</svg>
