<svg width="936" height="266" viewBox="0 0 936 266" fill="none" xmlns="http://www.w3.org/2000/svg">
<rect width="936" height="266" rx="10" fill="url(#paint0_linear)"/>
<g clip-path="url(#clip0)">
<path d="M873.655 124.217L843.087 138.935L870.141 118.355C865.744 111.373 860.805 104.76 855.37 98.58L722.801 132.102L842.548 85.6304C837.076 80.7186 831.265 76.2123 825.159 72.1463L623.156 105.248C601.708 132.534 590.017 166.427 590 201.364H894.07C894.057 174.269 887.015 147.657 873.655 124.217Z" fill="#F2F2F2"/>
<path d="M808.627 62.5903C787.887 52.2993 765.11 46.9668 742.035 47C695.072 47 653.084 68.6647 625.195 102.704C672.952 92.059 756.099 73.6312 808.627 62.5903Z" fill="#F2F2F2"/>
<path d="M894.072 200.743C894.072 205.546 850.196 220 796.072 220C741.948 220 698.072 205.546 698.072 200.743C698.072 195.94 741.948 202.607 796.072 202.607C850.196 202.607 894.072 195.94 894.072 200.743Z" fill="#3F3D56"/>
<path opacity="0.1" d="M894.072 200.743C894.072 205.546 850.196 220 796.072 220C741.948 220 698.072 205.546 698.072 200.743C698.072 195.94 741.948 202.607 796.072 202.607C850.196 202.607 894.072 195.94 894.072 200.743Z" fill="black"/>
<path d="M796.072 209.44C850.196 209.44 894.072 205.546 894.072 200.743C894.072 195.94 850.196 192.047 796.072 192.047C741.948 192.047 698.072 195.94 698.072 200.743C698.072 205.546 741.948 209.44 796.072 209.44Z" fill="#3F3D56"/>
<path d="M768.793 129.967C768.793 129.967 772.735 136.327 771.327 138.049C769.919 139.771 781.888 139.815 781.888 139.815C781.888 139.815 780.09 130.563 780.62 128.433L768.793 129.967Z" fill="#FFB8B8"/>
<path opacity="0.1" d="M768.793 129.967C768.793 129.967 772.735 136.327 771.327 138.049C769.919 139.771 781.888 139.815 781.888 139.815C781.888 139.815 780.09 130.563 780.62 128.433L768.793 129.967Z" fill="black"/>
<path d="M775.092 132.272C781.919 132.272 787.452 126.643 787.452 119.698C787.452 112.754 781.919 107.124 775.092 107.124C768.266 107.124 762.733 112.754 762.733 119.698C762.733 126.643 768.266 132.272 775.092 132.272Z" fill="#FF6584"/>
<path d="M804.163 187.854V195.308L811.49 193.755L810.879 188.475L804.163 187.854Z" fill="#FFB8B8"/>
<path d="M830.112 189.096L850.567 192.513L845.377 200.277C845.377 200.277 831.028 195.308 827.365 195.308C823.701 195.308 830.112 189.096 830.112 189.096Z" fill="#FFB8B8"/>
<path d="M783.708 174.188C783.708 174.188 798.972 156.173 803.857 157.105C808.742 158.037 810.879 163.627 810.879 163.627L813.627 191.27C813.627 191.27 803.857 192.202 803.857 191.27C803.857 190.338 802.025 170.461 802.025 170.461C802.025 170.461 787.676 202.762 780.044 181.331L783.708 174.188Z" fill="#2F2E41"/>
<path d="M758.979 186.301C758.979 186.301 759.284 201.83 768.443 202.762C777.602 203.694 787.676 196.55 787.676 196.55L804.162 188.515C804.162 188.515 823.701 199.035 829.502 196.24C829.502 196.24 835.608 189.717 831.639 187.854C827.67 185.99 831.334 187.854 831.334 187.854L807.826 175.43C807.826 175.43 803.247 174.188 795.309 177.604C787.371 181.021 776.686 182.574 776.686 182.574L758.979 186.301Z" fill="#2F2E41"/>
<path d="M774.244 133.189C779.302 133.189 783.402 129.018 783.402 123.872C783.402 118.726 779.302 114.554 774.244 114.554C769.185 114.554 765.085 118.726 765.085 123.872C765.085 129.018 769.185 133.189 774.244 133.189Z" fill="#FFB8B8"/>
<path d="M787.371 149.961L786.761 163.006C786.761 163.006 787.066 180.089 784.318 181.331C782.929 181.959 780.139 183.22 777.559 184.599C775.623 185.63 773.807 186.723 772.793 187.664C772.525 187.897 772.293 188.17 772.106 188.475C770.885 190.649 762.948 190.338 761.116 188.785C759.284 187.233 760.505 190.649 758.979 191.27C757.501 191.873 755.453 186.947 756.707 179.592C756.747 179.347 756.793 179.098 756.842 178.847C758.243 171.718 756.042 154.645 756.381 148.048C756.4 147.544 756.452 147.042 756.536 146.545C757.452 141.575 769.139 131.463 771.325 135.77C774.018 141.088 780.203 136.23 781.265 133.811C787.371 133.5 789.508 140.954 789.508 140.954L787.371 149.961Z" fill="#3F3D56"/>
<path d="M812.1 192.513C812.1 192.513 807.215 194.376 805.689 194.066C804.162 193.755 802.636 194.997 802.636 196.861C802.636 198.724 800.804 203.073 803.552 203.383C806.299 203.694 817.595 203.073 820.038 204.004C820.038 204.004 831.028 204.315 830.112 199.656C829.197 194.997 824.617 195.308 824.617 195.308C824.617 195.308 812.1 194.687 812.1 192.513Z" fill="#2F2E41"/>
<path d="M847.82 193.444C847.82 193.444 848.43 191.581 849.346 191.581C850.262 191.581 857.589 192.823 858.505 192.513C859.421 192.202 870.106 191.581 868.274 196.861C866.443 202.141 860.337 202.762 860.337 202.762C860.337 202.762 849.346 201.52 847.82 201.83C846.293 202.141 840.798 201.83 841.714 200.277C842.63 198.724 848.43 195.929 847.82 193.444Z" fill="#2F2E41"/>
<path d="M820.03 148.832L821.705 155.861C821.723 155.939 821.72 156.021 821.696 156.098L814.099 180.253C814.069 180.348 814.007 180.431 813.925 180.486C813.842 180.541 813.744 180.566 813.645 180.556C813.547 180.546 813.455 180.502 813.385 180.432C813.314 180.361 813.27 180.268 813.259 180.169L812.208 170.759C812.201 170.696 812.207 170.633 812.226 170.573L819.2 148.799C819.229 148.708 819.287 148.63 819.364 148.575C819.441 148.521 819.533 148.493 819.627 148.497C819.721 148.5 819.811 148.535 819.884 148.596C819.956 148.656 820.008 148.739 820.03 148.832Z" fill="#D0CDE1"/>
<path d="M819.414 149.426L820.96 155.456L814.259 177.481L812.713 170.664L819.414 149.426Z" fill="#B69F9F"/>
<path d="M785.651 182.201C785.909 182.988 812.455 181.939 812.713 181.677C812.937 181.348 813.127 180.997 813.28 180.628C813.522 180.103 813.744 179.579 813.744 179.579L812.713 171.089L786.424 170.14C786.424 170.14 785.767 177.334 785.633 180.628C785.587 181.151 785.593 181.678 785.651 182.201Z" fill="#AFABC5"/>
<path opacity="0.1" d="M809.362 172.237L809.878 179.579H798.28V172.237H809.362Z" fill="black"/>
<path opacity="0.1" d="M794.414 174.597L794.483 174.583L794.156 177.744H787.713V174.597H794.414Z" fill="black"/>
<path opacity="0.1" d="M785.651 182.201C785.909 182.988 812.455 181.939 812.713 181.677C812.937 181.348 813.127 180.997 813.28 180.628H785.633C785.587 181.151 785.593 181.678 785.651 182.201Z" fill="black"/>
<path d="M781.544 97.316C780.61 98.673 779.225 99.6412 777.646 100.042C774.92 100.785 777.623 104.952 777.623 104.952C777.623 104.952 776.64 103.437 778.058 101.832C779.476 100.227 781.758 99.13 781.544 97.316Z" fill="#FF6584"/>
<path d="M777.14 109.456C779.043 109.456 780.585 107.888 780.585 105.952C780.585 104.017 779.043 102.448 777.14 102.448C775.238 102.448 773.696 104.017 773.696 105.952C773.696 107.888 775.238 109.456 777.14 109.456Z" fill="#FF6584"/>
<path d="M781.538 108.889C778.73 107.809 774.054 107.261 771.649 107.635L771.979 105.185C774.291 106.401 778.945 106.972 781.868 106.439L781.538 108.889Z" fill="#3F3D56"/>
<path d="M776.104 109.767C776.104 109.767 772.585 115.722 764.402 117.951C756.218 120.181 764.335 132.691 764.335 132.691C764.335 132.691 761.383 128.142 765.641 123.324C769.898 118.506 776.748 115.212 776.104 109.767Z" fill="#FF6584"/>
<path d="M776.384 109.405C776.384 109.405 779.765 117.584 783.476 118.358C787.188 119.131 786.906 132.056 781.102 133.994C781.102 133.994 785.334 126.417 781.717 121.335C778.099 116.254 775.814 112.237 776.384 109.405Z" fill="#FF6584"/>
<path opacity="0.1" d="M777.559 184.599C776.805 186.049 775.92 187.556 775.77 188.164C775.669 188.577 774.552 188.338 772.793 187.664C769.267 186.307 763.155 183.198 757.452 180.089C757.189 179.947 756.94 179.781 756.707 179.592C756.747 179.347 756.793 179.098 756.842 178.846C758.243 171.718 756.042 154.645 756.381 148.048L758.979 147.166L764.169 152.136V173.256C764.169 173.256 777.602 180.71 778.518 181.331C778.985 181.648 778.341 183.092 777.559 184.599Z" fill="black"/>
<path d="M788.898 167.665L797.141 172.013C797.141 172.013 802.025 166.733 805.078 170.771C808.131 174.809 796.225 176.051 796.225 176.051C796.225 176.051 785.845 173.566 785.539 170.15C785.234 166.733 788.898 167.665 788.898 167.665Z" fill="#FFB8B8"/>
<path d="M775.159 179.157L780.044 180.399C780.044 180.399 785.539 173.566 791.34 176.051C797.141 178.536 784.013 183.505 784.013 183.505C784.013 183.505 776.991 187.232 774.243 184.127C771.496 181.021 775.159 179.157 775.159 179.157Z" fill="#FFB8B8"/>
<path d="M785.845 138.159C786.15 138.469 789.508 140.954 789.508 140.954C789.508 140.954 790.424 152.757 789.203 155.241C787.982 157.726 787.066 157.726 787.982 158.969C788.898 160.211 790.119 159.279 788.898 161.453C787.676 163.627 786.455 163.317 787.371 164.249C788.287 165.18 787.982 165.491 787.982 165.491L791.645 168.597C791.645 168.597 789.398 172.239 786.553 171.971C783.708 171.703 781.265 157.726 781.265 157.726L785.845 138.159Z" fill="#3F3D56"/>
<path d="M758.979 145.613L756.231 146.545C756.231 146.545 748.904 173.877 757.452 178.536C766.001 183.195 775.465 187.854 775.77 186.611C776.075 185.369 779.433 180.399 778.518 179.778C777.602 179.157 764.169 171.703 764.169 171.703V150.583L758.979 145.613Z" fill="#3F3D56"/>
<path opacity="0.1" d="M763.1 156.95L762.49 171.858L778.67 179.623L763.711 171.858L763.1 156.95Z" fill="black"/>
<path d="M899.292 190.383C893.139 194.074 890.717 201.494 890.717 201.494C890.717 201.494 898.272 202.929 904.425 199.238C910.578 195.547 913 188.127 913 188.127C913 188.127 905.446 186.692 899.292 190.383Z" fill="#3F3D56"/>
<path d="M901.448 192.671C898.003 199.037 890.784 201.718 890.784 201.718C890.784 201.718 889.151 194.078 892.597 187.712C896.043 181.347 903.262 178.666 903.262 178.666C903.262 178.666 904.894 186.306 901.448 192.671Z" fill="#FF6584"/>
<path d="M596.715 119.057C597.389 119.057 597.936 118.501 597.936 117.815C597.936 117.129 597.389 116.573 596.715 116.573C596.04 116.573 595.493 117.129 595.493 117.815C595.493 118.501 596.04 119.057 596.715 119.057Z" fill="#CE63FF"/>
<path d="M600.073 119.057C600.747 119.057 601.294 118.501 601.294 117.815C601.294 117.129 600.747 116.573 600.073 116.573C599.398 116.573 598.852 117.129 598.852 117.815C598.852 118.501 599.398 119.057 600.073 119.057Z" fill="#CE63FF"/>
<path d="M603.431 119.057C604.105 119.057 604.652 118.501 604.652 117.815C604.652 117.129 604.105 116.573 603.431 116.573C602.757 116.573 602.21 117.129 602.21 117.815C602.21 118.501 602.757 119.057 603.431 119.057Z" fill="#CE63FF"/>
<path opacity="0.3" d="M631.823 164.675H614.116V166.539H631.823V164.675Z" fill="#CE63FF"/>
<path opacity="0.3" d="M630.866 168.713H614.116V170.576H630.866V168.713Z" fill="#CE63FF"/>
<path opacity="0.3" d="M626.32 172.75H614.116V174.614H626.32V172.75Z" fill="#CE63FF"/>
<g opacity="0.3">
<path opacity="0.3" d="M673.038 164.675H655.331V166.539H673.038V164.675Z" fill="#CE63FF"/>
<path opacity="0.3" d="M672.081 168.713H655.331V170.576H672.081V168.713Z" fill="#CE63FF"/>
<path opacity="0.3" d="M667.535 172.75H655.331V174.614H667.535V172.75Z" fill="#CE63FF"/>
<path opacity="0.3" d="M673.038 164.675H655.331V166.539H673.038V164.675Z" fill="#CE63FF"/>
<path opacity="0.3" d="M672.081 168.713H655.331V170.576H672.081V168.713Z" fill="#CE63FF"/>
<path opacity="0.3" d="M667.535 172.75H655.331V174.614H667.535V172.75Z" fill="#CE63FF"/>
</g>
<path opacity="0.3" d="M715.78 164.675H698.072V166.539H715.78V164.675Z" fill="#CE63FF"/>
<path opacity="0.3" d="M714.822 168.713H698.072V170.576H714.822V168.713Z" fill="#CE63FF"/>
<path opacity="0.3" d="M710.276 172.75H698.072V174.614H710.276V172.75Z" fill="#CE63FF"/>
<path opacity="0.3" d="M634.266 140.449H611.674V160.948H634.266V140.449Z" fill="#CE63FF"/>
<path d="M675.481 140.449H652.889V160.948H675.481V140.449Z" fill="#3F3D56"/>
<path d="M718.222 140.449H695.63V160.948H718.222V140.449Z" fill="#3F3D56"/>
<path d="M661.241 160.862L660.943 160.856C660.95 160.52 661.136 152.606 664.198 150.419L664.369 150.667C661.431 152.766 661.243 160.781 661.241 160.862Z" fill="#CE63FF"/>
<path d="M665.774 150.319C666.597 150.319 667.264 149.64 667.264 148.802C667.264 147.965 666.597 147.286 665.774 147.286C664.951 147.286 664.284 147.965 664.284 148.802C664.284 149.64 664.951 150.319 665.774 150.319Z" fill="#CE63FF"/>
<path d="M665.473 154.156C664.698 154.403 663.872 154.44 663.079 154.261C663.583 153.608 664.261 153.118 665.032 152.849C665.804 152.58 666.635 152.543 667.426 152.744C666.908 153.38 666.234 153.867 665.473 154.156Z" fill="#CE63FF"/>
<path d="M703.983 160.862L703.684 160.856C703.691 160.52 703.877 152.606 706.94 150.419L707.111 150.667C704.172 152.766 703.984 160.781 703.983 160.862Z" fill="#CE63FF"/>
<path d="M708.515 150.319C709.338 150.319 710.006 149.64 710.006 148.802C710.006 147.965 709.338 147.286 708.515 147.286C707.692 147.286 707.025 147.965 707.025 148.802C707.025 149.64 707.692 150.319 708.515 150.319Z" fill="#CE63FF"/>
<path d="M708.214 154.156C707.439 154.403 706.613 154.44 705.82 154.261C706.324 153.608 707.002 153.118 707.774 152.849C708.545 152.58 709.376 152.543 710.167 152.744C709.649 153.38 708.976 153.867 708.214 154.156Z" fill="#CE63FF"/>
<path d="M738.066 200.433H591.83V114.399H738.066V200.433ZM592.44 199.811H737.455V115.02H592.44V199.811Z" fill="#2F2E41"/>
<path d="M737.761 120.631H592.135V121.252H737.761V120.631Z" fill="#2F2E41"/>
</g>
<defs>
<linearGradient id="paint0_linear" x1="0" y1="0" x2="827.608" y2="460.712" gradientUnits="userSpaceOnUse">
<stop stop-color="#FC18E5"/>
<stop offset="0.0001" stop-color="#F400BF"/>
<stop offset="1" stop-color="#9F01FF" stop-opacity="0.96"/>
</linearGradient>
<clipPath id="clip0">
<rect width="323" height="173" fill="white" transform="translate(590 47)"/>
</clipPath>
</defs>
</svg>
